<?xml version="1.0" standalone="no"?>
<!DOCTYPE svg PUBLIC "-//W3C//DTD SVG 20010904//EN"
 "http://www.w3.org/TR/2001/REC-SVG-20010904/DTD/svg10.dtd">
<svg version="1.0" xmlns="http://www.w3.org/2000/svg"
 width="166.000000pt" height="166.000000pt" viewBox="0 0 166.000000 166.000000"
 preserveAspectRatio="xMidYMid meet">
<metadata>
Created by potrace 1.11, written by Peter Selinger 2001-2013
</metadata>
<g transform="translate(0.000000,166.000000) scale(0.100000,-0.100000)"
fill="#000000" stroke="none">
<path d="M1140 1154 c-25 -13 -34 -22 -21 -18 34 9 41 -9 41 -104 l0 -83 -47
6 c-128 17 -217 -104 -161 -217 35 -71 98 -87 168 -41 l35 23 8 -25 c10 -30
17 -31 67 -5 44 22 54 35 16 20 -43 -16 -46 -1 -46 242 0 125 -3 228 -7 228
-5 -1 -28 -12 -53 -26z m-34 -213 c5 -1 20 -10 32 -21 19 -18 22 -31 22 -101
0 -72 -3 -83 -22 -99 -34 -28 -75 -34 -103 -16 -91 59 -58 257 40 241 11 -2
25 -4 31 -4z"/>
<path d="M310 1129 c-93 -28 -160 -114 -165 -210 -3 -62 24 -142 61 -181 33
-34 97 -67 133 -68 15 0 37 -16 62 -44 59 -66 149 -103 209 -85 l25 7 -25 1
c-35 1 -101 45 -128 85 -27 40 -28 53 -2 61 38 12 100 86 115 139 19 62 19 90
0 152 -34 116 -160 179 -285 143z m127 -31 c79 -48 111 -216 63 -325 -64 -145
-225 -99 -261 74 -41 200 65 334 198 251z"/>
<path d="M715 942 c-53 -25 -79 -65 -79 -122 0 -58 20 -98 63 -127 83 -56 201
-2 216 100 19 118 -91 199 -200 149z m100 -16 c32 -21 55 -76 55 -131 0 -46
-24 -104 -45 -106 -5 0 -17 -2 -26 -4 -27 -5 -74 24 -93 57 -24 40 -28 147 -6
173 29 35 72 39 115 11z"/>
<path d="M1355 942 c-111 -36 -133 -197 -35 -256 38 -22 97 -20 140 5 19 11
26 17 15 14 -79 -26 -125 -11 -155 49 -22 47 -27 105 -7 107 6 1 44 2 82 3 80
1 95 8 88 36 -11 42 -69 60 -128 42z m64 -16 c5 -3 11 -15 14 -26 5 -19 0 -20
-59 -20 -35 0 -64 3 -64 8 1 35 72 60 109 38z"/>
<path d="M1524 715 c-9 -23 3 -45 25 -45 25 0 34 14 26 40 -7 23 -43 27 -51 5z"/>
<path d="M703 587 c-4 -6 -1 -7 7 -2 10 6 12 0 8 -24 -3 -19 0 -31 7 -31 6 0
11 12 10 28 0 17 5 27 15 27 17 0 21 -24 7 -42 -7 -9 -5 -13 7 -13 10 0 16 9
16 24 0 27 14 41 30 31 6 -4 6 -15 0 -30 -7 -19 -6 -25 4 -25 10 0 14 11 13
33 l-2 32 -58 1 c-31 1 -60 -3 -64 -9z"/>
<path d="M861 591 c-9 -6 -10 -11 -2 -15 6 -4 11 -2 11 3 0 6 5 11 10 11 18 0
10 -29 -10 -35 -24 -8 -27 -25 -4 -25 8 0 12 5 9 10 -3 6 -1 10 4 10 6 0 11
-4 11 -10 0 -5 4 -10 10 -10 5 0 8 10 6 23 -3 12 -5 28 -5 35 -1 14 -20 16
-40 3z"/>
<path d="M935 588 c-2 -7 -3 -24 -1 -38 1 -14 -2 -30 -7 -37 -22 -30 39 -47
63 -18 14 17 5 35 -19 35 -28 0 -33 12 -10 24 12 6 21 15 20 20 -2 5 3 13 11
17 9 6 2 9 -20 9 -18 0 -34 -6 -37 -12z m35 -14 c0 -9 -5 -14 -12 -12 -18 6
-21 28 -4 28 9 0 16 -7 16 -16z m15 -64 c8 -13 -20 -24 -41 -16 -20 8 -9 26
16 26 10 0 22 -5 25 -10z"/>
<path d="M1017 594 c-4 -4 -7 -12 -7 -18 0 -6 5 -4 10 4 7 11 12 12 21 3 8 -8
6 -14 -10 -22 -30 -16 -26 -31 8 -31 27 0 28 2 22 32 -6 31 -29 47 -44 32z
m30 -50 c-3 -3 -12 -4 -19 -1 -8 3 -5 6 6 6 11 1 17 -2 13 -5z"/>
<path d="M1113 594 c3 -4 0 -16 -8 -28 -8 -11 -15 -24 -15 -28 0 -11 48 -10
54 1 4 5 -3 7 -14 4 -24 -6 -26 9 -5 27 20 16 19 30 -2 30 -9 0 -13 -3 -10 -6z"/>
<path d="M1168 565 c-3 -22 0 -35 8 -35 7 0 11 14 10 35 -1 45 -13 45 -18 0z"/>
<path d="M1216 586 c3 -9 11 -16 16 -16 13 0 5 23 -10 28 -7 2 -10 -2 -6 -12z"/>
<path d="M1259 591 c8 -5 12 -19 9 -35 -3 -16 -1 -26 7 -26 10 0 12 18 6 63
-1 4 -9 7 -18 7 -14 0 -15 -2 -4 -9z"/>
<path d="M1308 577 c-12 -23 6 -47 36 -46 21 0 21 0 -1 9 -40 16 -24 49 20 41
5 -1 6 3 3 8 -10 16 -47 8 -58 -12z"/>
<path d="M1224 551 c4 -5 0 -12 -6 -14 -8 -3 -6 -6 5 -6 9 -1 17 6 17 14 0 8
-5 15 -11 15 -5 0 -8 -4 -5 -9z"/>
</g>
</svg>
